<?xml version="1.0" encoding="utf-8"?>
<!-- Generator: Adobe Illustrator 24.2.1, SVG Export Plug-In . SVG Version: 6.00 Build 0)  -->
<svg version="1.1" xmlns="http://www.w3.org/2000/svg" xmlns:xlink="http://www.w3.org/1999/xlink" x="0px" y="0px"
	 viewBox="0 0 7674.08 4316.67" style="enable-background:new 0 0 7674.08 4316.67;" xml:space="preserve">
<g id="ACHILLEA_HELLA_GLASHOFF">
	<polygon class="st0" points="2477.76,1035.35 2470.76,1054.33 2467.81,1083.58 2471.82,1106.65 2431.92,1092.34 2416.6,1091.12 
		2382.71,1111.73 2374.91,1093.26 2348.62,1067.85 2359.07,1044.46 2350.97,1020.73 	"/>
	<polygon class="st0" points="1973.13,1205.45 1951.5,1177.04 1929.52,1164.24 1917.71,1160.23 1907.3,1171.08 1898.43,1171.05 
		1882.19,1182.93 1872.91,1241.87 1987.9,1272.77 1991.85,1236.45 1999.18,1214.8 	"/>
	<polyline class="st0" points="3473.88,1554.94 3483.04,1583.26 3470.97,1600.47 3464.61,1628.4 3478.98,1690.6 3504.44,1726.78 
		3462.77,1744.66 3444.31,1747.84 3372.61,1768.13 3340.32,1690.08 3364.32,1635.11 3397.77,1631.49 3439.7,1611.68 
		3459.79,1592.77 3473.88,1554.94 	"/>
	<polygon class="st0" points="2691,1475.8 2702.08,1459.06 2679.91,1465.72 2568.03,1494.88 2568.03,1494.88 2593.82,1514.62 
		2605.43,1534.56 2606.78,1556.45 2625.42,1544.22 2641.3,1540.46 2666.63,1544.37 2681.25,1553.1 2676.16,1524.76 2680.54,1497.68 
			"/>
	<polygon class="st0" points="1905.19,2372.89 1867.63,2340.32 1852.82,2301.25 1852.88,2283.66 1861.44,2264.88 1952.65,2263.26 
		1962.27,2282.87 1962.14,2318.2 1949.83,2345.01 1930.32,2357.1 	"/>
	<polygon class="st0" points="2525.39,2667.07 2523.11,2636.64 2528.03,2599.44 2546.22,2570.48 2523.45,2547.04 2462.42,2560.58 
		2443.12,2576.17 2430.88,2594.97 2417.94,2644.4 2420.92,2655.31 2453.2,2661.59 	"/>
	<polygon class="st0" points="3223.32,2417.63 3183.22,2386.76 3173.65,2398.92 3161.36,2405.8 3142.47,2405.73 3135.03,2397.67 
		3124.93,2403.46 3118.08,2411.97 3111.85,2436.75 3109.82,2473.89 3205.54,2533.55 3210.88,2476.7 3234.5,2446.5 	"/>
	<polygon class="st0" points="2945.68,2147.43 2914.07,2149.22 2895.84,2129.06 2914.01,2109.55 2922.21,2077.9 2914.24,2047.59 
		3028.65,2020.12 3005.74,2058.08 3001.02,2120.32 2987.05,2132.81 2985.64,2149.49 2989.62,2164.62 	"/>
	<polyline class="st0" points="3891.17,2219.79 3871.91,2238.36 3856.83,2259.94 3839.08,2279.54 3826.25,2273.44 3813.92,2276.78 
		3781.85,2259.66 3762.64,2241.33 3755.76,2219.28 3752.92,2176.45 3761.5,2163.46 3768.59,2143.88 3769.97,2123.18 
		3891.17,2219.79 	"/>
	<polygon class="st0" points="3911.28,1337.86 3915.85,1310.39 3927.81,1289.96 3909.63,1261.47 3900.3,1218.19 3916.97,1179.55 
		3870.63,1185.91 3857.2,1192.31 3810.1,1201.36 3808.4,1256.22 3819.74,1293.29 	"/>
</g>
<g id="ALLIUM_SUMMER_BEAUTY">
	<polygon class="st0" points="2895.36,1142.26 2897.03,1108.04 2819.03,1086.54 2822.15,1100.44 2817.84,1123.3 2799.61,1155.74 
		2821.83,1187.16 2859.72,1187.3 2888.41,1213.28 2914.22,1187.51 	"/>
	<polygon class="st0" points="2698.02,1566.07 2681.25,1553.1 2666.63,1544.37 2641.3,1540.46 2625.42,1544.22 2606.78,1556.45 
		2585.03,1579.96 2577.37,1593.15 2600.52,1606.49 2655.8,1626.54 2691.9,1646.15 2708.11,1607.33 2724.9,1579.79 	"/>
	<polygon class="st0" points="3111.85,2436.75 3118.08,2411.97 3124.93,2403.46 3084.13,2383.2 3058.6,2352.73 2973.85,2397.07 
		2984.52,2404.53 3040.87,2430.76 3109.82,2473.89 	"/>
	<polygon class="st0" points="4071.61,2410.51 4059.35,2390.12 4033.83,2358.5 3993.3,2390.25 3985.79,2405.61 3972.82,2446.09 
		4045.89,2439.74 4063.45,2435.55 4074.41,2423.76 	"/>
	<polygon class="st0" points="1770.89,2336.64 1700.5,2344.07 1702.84,2309.24 1691.71,2275.69 1669.31,2235.04 1719.14,2244.06 
		1775.84,2258.67 1763.39,2270.69 1759.21,2282.52 1765.79,2320.14 	"/>
</g>
<g id="ANEMONE_X_HYBRIDA_H_J">
	<polygon class="st0" points="3549.55,1379.46 3556.78,1357.18 3538.9,1365.11 3542.95,1376.43 3536.65,1402.83 3514.66,1402.75 
		3503.41,1396.58 3491.76,1382.36 3491.82,1364.93 3459.4,1351.85 3426.9,1330.93 3404.66,1356.6 3381.78,1360.69 3402.57,1396.2 
		3407.87,1430.5 3420.68,1426.88 3445.7,1433.1 3445.55,1472.04 3407.75,1460.37 3396.14,1494.11 3417.08,1488.24 3439.95,1493.5 
		3448,1501.01 3460.7,1511.22 3494.03,1460.7 3554.38,1457.34 3549.34,1434.62 	"/>
	<polygon class="st0" points="3339.08,2214.25 3325.29,2169.93 3339.4,2127.51 3356.34,2114.1 3337.42,2089.32 3306.74,2105.83 
		3271.14,2113.78 3230.63,2105.55 3212.33,2088.85 3208.21,2142.83 3198.66,2164.63 3207.27,2159.21 3222.19,2159.27 
		3234.17,2175.83 3235.45,2194.15 3229.2,2202.71 3206.24,2204.63 3190.83,2182.5 3183.93,2198.26 3230.26,2236.33 3245.78,2218.23 
		3287.15,2201.5 	"/>
	<polygon class="st0" points="2312.17,2343.3 2345.59,2379.49 2331.9,2414.45 2348.46,2452.18 2314.99,2470.9 2298.94,2435.86 
		2258.86,2431.5 2238.63,2435.88 2235.11,2404.01 2219.37,2375.13 2227.67,2354.34 2248.3,2336.12 2275.52,2331.49 	"/>
</g>
<g id="ANEMONE_X_HYBRIDA_PAMINA">
	<polygon class="ANEMONE_x0020_X_x0020_HYBRIDA_x0020_PAMINA" points="2790.7,1275.79 2771.95,1287.27 2754.46,1280.85 
		2746.7,1258.55 2752.21,1238.07 2723.77,1253.6 2709.24,1264.99 2692.63,1267.94 2682.7,1260.15 2678.33,1298.2 2692.37,1335.71 
		2716.75,1356.45 2803.7,1320.78 	"/>
	<polygon class="ANEMONE_x0020_X_x0020_HYBRIDA_x0020_PAMINA" points="3597.59,1593.28 3568.91,1570.29 3530.26,1580.67 
		3483.04,1583.26 3470.97,1600.47 3464.61,1628.4 3478.98,1690.6 3504.44,1726.78 3597.55,1689.97 3624.37,1675.64 3624.49,1643.74 
			"/>
	<polygon class="ANEMONE_x0020_X_x0020_HYBRIDA_x0020_PAMINA" points="2425.94,2271.74 2416.31,2305.79 2419.08,2334.28 
		2428.86,2364.31 2439.65,2360.81 2448.66,2360.85 2453.2,2363 2472.16,2350.53 2513.9,2344.63 2534.7,2342.82 2547.92,2348.53 
		2555.1,2323.57 2569.21,2311.06 	"/>
</g>
<g id="ASTER_LITTLE_CARLON">
	<polygon class="ASTER_x0020_LITTLE_x0020_CARLON" points="2471.82,1106.65 2431.92,1092.34 2416.6,1091.12 2382.71,1111.73 
		2368.26,1129.43 2353.24,1185.4 2363.18,1202.68 2408.48,1181.93 2444.27,1186.96 2462.74,1191.6 2482.69,1154.14 2482.8,1123.99 	
		"/>
	<polygon class="ASTER_x0020_LITTLE_x0020_CARLON" points="3275.75,2339.45 3322.87,2328.8 3360.43,2292.22 3369.47,2250.06 
		3339.08,2214.25 3287.15,2201.5 3245.78,2218.23 3230.26,2236.33 3235.1,2288.28 3251.18,2329.17 	"/>
	<polygon class="ASTER_x0020_LITTLE_x0020_CARLON" points="2622.67,2461.98 2598.78,2451.26 2580.48,2434.28 2560.65,2436.29 
		2555.35,2429.64 2535.24,2442.84 2529.27,2461.63 2514.59,2459.34 2523.45,2547.04 2546.22,2570.48 2563,2560.96 2586.5,2559.26 
		2584.24,2551.25 2587.57,2533.69 2604.23,2526.27 2602.79,2508.83 2607.01,2483.01 	"/>
	<polygon class="ASTER_x0020_LITTLE_x0020_CARLON" points="3145.23,1473.64 3141.57,1420.26 3148.9,1395.25 3118.88,1384.88 
		3110.61,1391.38 3118.69,1436.43 3084.15,1448.81 3088.04,1409.11 3045.91,1424.45 3023.79,1455.35 3050.39,1496.7 
		3082.12,1477.48 3096.74,1533.61 3111.81,1509.91 3165.44,1487.3 	"/>
</g>
<g id="ASTER_ANELLUS_SONORA">
	<polygon class="ASTER_x0020_ANELLUS_x0020_SONORA" points="1877.75,1158.02 1873.3,1138.57 1877.88,1124.2 1889.95,1124.25 
		1878.82,1078.28 1773.87,1120.71 1796.52,1129.5 1815.15,1196.17 1809.12,1227.47 1872.91,1241.87 1882.19,1182.93 
		1898.43,1171.05 	"/>
	<polygon class="ASTER_x0020_ANELLUS_x0020_SONORA" points="3160.85,1225.71 3192.59,1266.76 3169.72,1388.39 3148.9,1395.25 
		3118.88,1384.88 3088.81,1360.43 3070.27,1339.89 3053.86,1299.72 3067.29,1287.51 3097.73,1275 3127.11,1251.66 	"/>
	<polygon class="ASTER_x0020_ANELLUS_x0020_SONORA" points="2914.24,2047.59 2922.21,2077.9 2914.01,2109.55 2895.84,2129.06 
		2856.96,2141.51 2811.74,2137.75 2804.57,2077.46 	"/>
	<polyline class="ASTER_x0020_ANELLUS_x0020_SONORA" points="3858.46,2459.37 3870.96,2410.3 3890.58,2376.39 3861.51,2359.6 
		3844.19,2332.17 3834.25,2322.45 3816.96,2323.8 3794.42,2335.08 3779.37,2348.76 3768.1,2369.93 3762.99,2404.77 3775.29,2444.85 
		3772.54,2478.45 3804.83,2469.58 3858.46,2459.37 	"/>
	<polygon class="ASTER_x0020_ANELLUS_x0020_SONORA" points="2308.99,2242.68 2260.12,2240.21 2179.73,2244.49 2191.72,2264.16 
		2195.8,2289.12 2195.69,2320.34 2184.69,2354.27 2219.37,2375.13 2227.67,2354.34 2248.3,2336.12 2275.52,2331.49 2312.17,2343.3 
		2312.29,2309.86 2331.94,2248 	"/>
</g>
<g id="ALAMINTHA_NEPETA_SSP_NEPETA">
	<polygon class="st1" points="4191.7,1165.1 4191.78,1143.82 4184.23,1131.16 4164.72,1124.23 4126.35,1131.67 4086.5,1146.31 
		4084.01,1182.76 4096.38,1228.88 4123.69,1260.81 4157.85,1219.45 	"/>
	<polygon class="st1" points="2714.82,2103.61 2724.17,2123.35 2719.38,2143.57 2701.3,2167.58 2676.14,2179.53 2653.9,2184.75 
		2621.63,2178 2608.91,2140.58 	"/>
	<polygon class="st1" points="3116.48,2641.28 3144.43,2624.7 3144.52,2602.12 3095.11,2566.6 3062.18,2597.35 3045.26,2651.15 	"/>
	<polygon class="st1" points="3063.91,1147.56 2997.6,1129.78 2982.69,1168.56 2986.6,1200.78 2991.93,1223.12 3048.38,1193.75 
		3076.44,1169.61 3076.48,1157.04 	"/>
</g>
<g id="CRAMBE_CORDIFOLIA">
	<polygon class="CRAMBE_x0020_CORDIFOLIA" points="2152.88,1023.16 2116.73,1026.9 2110.43,1037.4 2102.83,1060.15 2110.39,1085.07 
		2130.56,1090.04 2152.42,1082.4 2160.75,1070.38 2160.8,1056.62 2165.09,1051.63 2165.14,1038.61 	"/>
	<polygon class="CRAMBE_x0020_CORDIFOLIA" points="3439.95,1493.5 3417.08,1488.24 3396.14,1494.11 3390.33,1512.95 
		3393.29,1534.72 3414.48,1543.37 3436.04,1537.94 3450.35,1521.3 3448,1501.01 	"/>
	<polyline class="CRAMBE_x0020_CORDIFOLIA" points="3471.26,2343.77 3477.59,2362.31 3494.48,2374.9 3516.71,2374.99 
		3530.04,2363.27 3536.96,2340.43 3527.51,2317.86 3505.85,2307.75 3484.14,2310.27 3471.26,2343.77 	"/>
	<polygon class="CRAMBE_x0020_CORDIFOLIA" points="2329.52,2512.38 2307.02,2510.67 2295.39,2518.35 2288.82,2537.92 
		2295.23,2558.37 2320.51,2569.63 2332,2569.68 2345.51,2558.04 2348.16,2531.54 	"/>
	<polygon class="CRAMBE_x0020_CORDIFOLIA" points="2933.64,2250.63 2921.58,2245.23 2894.08,2251.65 2888.21,2266.12 
		2890.68,2284.96 2900.08,2297.68 2914.52,2303.18 2932.4,2298.88 2945.17,2283.36 2943.31,2267.93 	"/>
</g>
<g id="DORYCNIUM_HIRSUTUM">
	<polygon class="DORYCNIUM_x0020_HIRSUTUM" points="2819.03,1086.54 2762.04,1073.35 2702.19,1067.62 2706.17,1118.75 
		2717.52,1149.73 2734.41,1155.5 2765.85,1141.77 2799.61,1155.74 2817.84,1123.3 2822.15,1100.44 	"/>
	<polygon class="DORYCNIUM_x0020_HIRSUTUM" points="3452.75,2003.73 3437.48,2027.5 3430.46,2068.03 3436.19,2089.69 
		3423.99,2103.82 3423.92,2121.91 3405.42,2128.5 3356.34,2114.1 3337.42,2089.32 3329.31,2045.81 3343.69,1995.76 3397.74,2001.16 
			"/>
	<polygon class="DORYCNIUM_x0020_HIRSUTUM" points="2994.85,2576.88 2963.46,2590.82 2954.23,2590.79 2939.32,2582.64 
		2922.66,2625.43 2922.52,2661.81 3045.26,2651.15 	"/>
</g>
<g id="ECHINACEA_PURPUREA_FA_PM">
	<polygon class="ECHINACEA_x0020_PURPUREA_x0020_FA_x0020_PM" points="2530.88,1206.06 2501.35,1213.67 2481.64,1233.18 
		2469.88,1289.65 2473.29,1310.85 2497.84,1334.98 2527.32,1335.09 2555.69,1315.21 2574.66,1289.71 2574.73,1270.97 
		2561.72,1237.36 	"/>
	<polygon class="ECHINACEA_x0020_PURPUREA_x0020_FA_x0020_PM" points="2102.83,1060.15 2110.43,1037.4 2116.73,1026.9 
		2101.45,1028.48 2094.49,1029.19 1988.74,1049.62 2009.68,1106.63 2038.07,1135.69 2063.43,1118.66 2092.57,1125.01 
		2096.66,1112.72 2107.01,1104.05 2116.43,1104.98 2110.39,1085.07 	"/>
	<polygon class="ECHINACEA_x0020_PURPUREA_x0020_FA_x0020_PM" points="3808.39,1256.42 3809.92,1201.55 3724.87,1212.77 
		3683.98,1214.79 3697.73,1257.26 3689.21,1312.49 3718.04,1321.17 3751.4,1324.25 3799.27,1317.4 3819.85,1293.44 	"/>
	<polygon class="ECHINACEA_x0020_PURPUREA_x0020_FA_x0020_PM" points="3397.77,1631.49 3439.7,1611.68 3459.79,1592.77 
		3473.88,1554.94 3460.7,1511.22 3448,1501.01 3450.35,1521.3 3436.04,1537.94 3414.48,1543.37 3393.29,1534.72 3390.33,1512.95 
		3396.14,1494.11 3363.94,1486.35 3341.55,1493.71 3320.88,1525.95 3315.3,1541.58 3317.56,1565.95 3329.75,1599.94 
		3346.11,1617.42 3364.32,1635.11 	"/>
	<polygon class="ECHINACEA_x0020_PURPUREA_x0020_FA_x0020_PM" points="3021.83,2158.52 3069.6,2147.9 3112.9,2105.11 3113,2078.62 
		3092.4,2051.78 3103.16,2009.99 3028.65,2020.12 3005.74,2058.08 3001.02,2120.32 3015.46,2121.19 3028.2,2141.12 	"/>
	<polygon class="ECHINACEA_x0020_PURPUREA_x0020_FA_x0020_PM" points="3373.92,2458.61 3394.84,2431.54 3402.24,2397.79 
		3385.2,2365.62 3365.97,2353.89 3355.5,2337.91 3342.53,2309.65 3322.87,2328.8 3284.54,2337.46 3286.96,2361.39 3276.34,2414.03 
		3284.4,2440.45 3286.6,2455.33 3308.25,2473.08 3315.47,2491.47 3327.55,2469.7 3347.87,2457.93 	"/>
	<polygon class="ECHINACEA_x0020_PURPUREA_x0020_FA_x0020_PM" points="2921.94,2467.79 2852.83,2432.84 2829.25,2485.34 
		2825.33,2529.43 2867.68,2542.06 2912.55,2529.76 2910.74,2495.02 	"/>
</g>
<g id="ECHINOPS_BANNATICUS">
	<polygon class="ECHINOPS_x0020_BANNATICUS" points="2363.18,1202.68 2353.24,1185.4 2316.44,1168.92 2289.15,1165.59 
		2263.65,1168.72 2236.22,1201.3 2214.68,1243.15 2229.65,1254.15 2260.52,1273.8 2290.54,1279.11 2302.51,1273.96 2313.73,1258.76 
		2329.6,1254.52 2347.51,1254.59 2344.87,1230.75 	"/>
	<polygon class="ECHINOPS_x0020_BANNATICUS" points="3187.73,1570.16 3198.78,1520.35 3165.44,1487.3 3111.81,1509.91 
		3096.74,1533.61 3108.01,1542.22 3114.46,1557.34 3116.25,1577.76 3097.4,1591.4 3076.99,1591.33 3080.45,1600.03 3101.8,1634.12 
		3122.01,1641.85 3156.17,1650.22 3173.2,1630.09 3201.12,1618.96 	"/>
	<polygon class="ECHINOPS_x0020_BANNATICUS" points="2987.55,2226.28 2985.74,2187.69 2996.19,2168.63 2989.62,2164.62 
		2945.68,2147.43 2914.07,2149.22 2916.81,2195.23 2893.08,2225.93 2921.58,2245.23 2933.64,2250.63 2943.31,2267.93 
		2945.17,2283.36 2979.96,2273.01 3000.36,2245.53 	"/>
	<polygon class="ECHINOPS_x0020_BANNATICUS" points="2110.42,2386.89 2128.67,2365.12 2076.66,2348.17 2073.25,2395.75 
		2041.85,2395.63 2033.09,2360.57 2017.25,2378.25 2025.82,2450.02 2021.59,2465.69 2009.73,2472.16 2110.06,2481.62 
		2118.43,2447.19 2110.29,2421.88 	"/>
	<polygon class="ECHINOPS_x0020_BANNATICUS" points="2722.97,2462.36 2665.01,2451.99 2641.81,2451.9 2622.67,2461.98 
		2607.01,2483.01 2602.79,2508.83 2604.23,2526.27 2621.15,2524.41 2634.52,2540 2636.84,2559.45 2630.19,2570.8 2644.44,2581.54 
		2653.54,2568.18 2677,2561.39 2677.06,2545.22 2687.39,2530.82 2707.33,2522.27 2707.09,2500.65 	"/>
	<path class="ECHINOPS_x0020_BANNATICUS" d="M3666.25,1393.47l-0.38-50.03l-73.27-12.13l-35.81,25.87l-7.24,22.28l-0.21,55.16
		l5.04,22.73l31.52,24.92l18.31-16.76l20.95,0.08l16.12,28.01l46.37-10.94l11.88-43.54L3666.25,1393.47z M3628.22,1457.62
		l0.16-41.97l25.85-8.09l8.77,50.19L3628.22,1457.62z"/>
	<polygon class="ECHINOPS_x0020_BANNATICUS" points="3679.38,2219 3668.5,2187.26 3639.86,2163.05 3609.59,2154.79 3555.47,2150.31 
		3546.42,2230.76 3569.6,2246.23 3588.05,2264.77 3598.55,2289.65 3616.16,2276.04 3636.61,2210.28 	"/>
</g>
<g id="ERYNGIUM_ALPINUM">
	<polygon class="ERYNGIUM_x0020_ALPINUM" points="2997.6,1129.78 2986.78,1127.23 2958.04,1122.8 2897.03,1108.04 2895.36,1142.26 
		2914.22,1187.51 2945.54,1185.27 2986.6,1200.78 2982.69,1168.56 	"/>
	<polygon class="ERYNGIUM_x0020_ALPINUM" points="2577.31,1369.27 2585.85,1292.97 2574.66,1289.71 2555.69,1315.21 
		2527.32,1335.09 2497.84,1334.98 2473.29,1310.85 2452.42,1324.19 2444.75,1366.1 2450.98,1398.95 2466.52,1426.88 
		2520.45,1416.21 2590.61,1398.84 	"/>
	<polygon class="ERYNGIUM_x0020_ALPINUM" points="3689,1527.43 3688.09,1482.74 3641.67,1493.47 3638.37,1508.4 3620.81,1522.92 
		3595.11,1520.25 3568.95,1569.84 3597.53,1592.96 3624.19,1643.54 3623.92,1675.44 3696.61,1636 3765.72,1591.12 3738.85,1573.63 
		3704.55,1549.05 	"/>
	<polygon class="ERYNGIUM_x0020_ALPINUM" points="1691.71,2275.69 1669.31,2235.04 1636.41,2229 1643.35,2255.22 1638.41,2275.93 
		1623.3,2297.04 1598.33,2299.8 1678.99,2372.04 1700.5,2344.07 1702.84,2309.24 	"/>
	<polygon class="ERYNGIUM_x0020_ALPINUM" points="2332,2569.68 2320.51,2569.63 2295.23,2558.37 2288.82,2537.92 2295.39,2518.35 
		2275.8,2531.27 2242.38,2522.78 2203.08,2584.64 2201.1,2620.37 2323.1,2644.04 2332.81,2594.6 2345.51,2558.04 	"/>
</g>
<g id="GA_TD">
	<polygon class="GA_x0020_TD" points="3156.17,1650.22 3122.01,1641.85 3110.28,1661.38 3085.06,1680.25 3045.58,1688.97 
		3033.36,1725.61 3032.22,1762.88 3115.38,1775.1 3146.12,1777.74 3142.97,1760.92 3137.69,1728.07 3140.78,1691.32 	"/>
	<polyline class="GA_x0020_TD" points="1977.55,2548.34 2001.51,2514.19 2009.73,2472.16 1988.05,2461.01 1967.65,2460.93 
		1946.49,2457.31 1921.21,2441.56 1905.29,2425.01 1887.28,2437.26 1873.34,2464.08 1866.62,2501.61 1977.55,2548.34 	"/>
	<polygon class="GA_x0020_TD" points="3652.13,2428.67 3662.15,2404.39 3629.48,2396.26 3620.93,2424.48 3587.79,2421.67 
		3600.87,2375.3 3598.37,2336.6 3582.41,2358.71 3552.69,2379.64 3527.24,2390.18 3531.4,2417.04 3518.65,2431.81 3520.13,2441.34 
		3536.63,2427.67 3554.43,2426.08 3568.76,2432.01 3573.23,2450.16 3568.63,2467.35 3560.05,2474.13 3544.48,2476.15 3554.2,2488.2 
		3568.45,2516.18 3568.36,2538.23 3650.04,2512.99 3644.02,2489.46 3647.2,2456.38 	"/>
	<polygon class="GA_x0020_TD" points="2706.17,1118.75 2702.19,1067.62 2645.9,1055.23 2588.81,1047.55 2603.01,1099.42 
		2586.56,1137.76 2586.44,1169.94 2633.64,1141.27 2717.52,1149.73 	"/>
</g>
<g id="GERANIUM_ROZANNE">
	<polygon class="GERANIUM_x0020_ROZANNE" points="2606.78,1556.45 2585.03,1579.96 2577.37,1593.16 2535.91,1574.06 
		2499.21,1551.44 2487.18,1541.12 2485.05,1531.01 2493.05,1519.5 2509.37,1509.82 2568.03,1494.88 2593.82,1514.62 
		2605.43,1534.56 	"/>
	<polygon class="GERANIUM_x0020_ROZANNE" points="2754.62,2383.41 2741.64,2465.34 2758.37,2493.36 2782.9,2502.85 2804.04,2504.93 
		2829.25,2485.34 2852.83,2432.84 	"/>
</g>
<g id="GILLENIA_TRIFOLIATA">
	<polygon class="GILLENIA_x0020_TRIFOLIATA" points="2334.78,1148.29 2316.44,1168.92 2353.24,1185.4 2363.39,1148.4 	"/>
	<polygon class="GILLENIA_x0020_TRIFOLIATA" points="3911.28,1337.86 3910.99,1366.5 3920.88,1393.01 3949.66,1393.12 
		3949.83,1346.43 	"/>
	<polyline class="GILLENIA_x0020_TRIFOLIATA" points="3407.87,1430.5 3407.75,1460.37 3445.55,1472.04 3445.7,1433.1 
		3420.68,1426.88 3407.87,1430.5 	"/>
	<polygon class="GILLENIA_x0020_TRIFOLIATA" points="3084.15,1448.81 3118.69,1436.43 3110.61,1391.38 3088.04,1409.11 	"/>
	<polyline class="GILLENIA_x0020_TRIFOLIATA" points="3251.18,2329.17 3243.05,2350.84 3205,2350.69 3176.2,2316.54 3235.1,2288.28 
		3251.18,2329.17 	"/>
	<polygon class="GILLENIA_x0020_TRIFOLIATA" points="2804.18,2189.52 2788.83,2200.5 2779.69,2237.56 2806.54,2247.94 
		2822.48,2221.71 	"/>
	<polygon class="GILLENIA_x0020_TRIFOLIATA" points="3600.87,2375.3 3587.79,2421.67 3620.93,2424.48 3629.48,2396.26 	"/>
	<polygon class="GILLENIA_x0020_TRIFOLIATA" points="3582.29,2105.04 3577.05,2152.1 3555.47,2150.31 3523.15,2114.73 
		3544.08,2088.42 	"/>
	<polygon class="GILLENIA_x0020_TRIFOLIATA" points="2068.31,2345.45 2052.84,2347.04 2033.09,2360.57 2041.85,2395.63 
		2073.25,2395.75 2076.66,2348.17 	"/>
</g>
<g id="HELENIUM_MORHEIM_BEAUTY">
	<polygon class="HELENIUM_x0020_MORHEIM_x0020_BEAUTY" points="2481.22,1191.67 2462.74,1191.6 2471.92,1207.8 2467.26,1229.67 
		2447.54,1240.02 2429.08,1234.14 2423.15,1212.23 2429.8,1194.97 2444.27,1186.96 2408.48,1181.93 2363.18,1202.68 
		2344.87,1230.75 2347.51,1254.59 2354.64,1288.88 2365.36,1285.74 2386.91,1285.82 2424.79,1299.78 2434.68,1279.65 
		2451.47,1270.51 2469.88,1289.65 2481.64,1233.18 2501.35,1213.67 	"/>
	<polygon class="HELENIUM_x0020_MORHEIM_x0020_BEAUTY" points="4004.32,1282.57 4018.34,1251.02 4025.12,1222.21 4017.45,1192.79 
		3995.99,1166.89 3922.87,1178.52 3916.97,1179.55 3900.3,1218.19 3909.63,1261.47 3927.81,1289.96 3942.8,1295.45 3965.78,1295.53 
			"/>
	<polygon class="HELENIUM_x0020_MORHEIM_x0020_BEAUTY" points="3341.55,1493.71 3320.88,1525.95 3295.55,1490.84 3277.69,1481.1 
		3277.92,1420.77 3289.08,1371.8 3306.18,1356.23 3316.5,1360.44 3330.61,1357.51 3335.39,1346.97 3381.78,1360.69 3402.57,1396.2 
		3407.87,1430.5 3407.75,1460.37 3396.14,1494.11 3363.94,1486.35 	"/>
	<polygon class="HELENIUM_x0020_MORHEIM_x0020_BEAUTY" points="2914.07,2149.22 2895.84,2129.06 2856.96,2141.51 2811.74,2137.75 
		2804.18,2189.52 2822.48,2221.71 2828.34,2236.49 2843.28,2239.14 2893.08,2225.93 2916.81,2195.23 	"/>
	<polygon class="HELENIUM_x0020_MORHEIM_x0020_BEAUTY" points="3385.2,2365.62 3365.97,2353.89 3355.5,2337.91 3375.4,2343.9 
		3389.85,2338.04 3395.26,2317.36 3389.81,2297.25 3372.64,2288.8 3360.43,2292.22 3369.47,2250.06 3385.78,2252.2 3409.01,2246.08 
		3429.76,2237.08 3451.94,2218.14 3473.56,2258.5 3461.96,2320.4 3471.26,2343.77 3451.4,2361.43 3414.24,2374.6 	"/>
	<polygon class="HELENIUM_x0020_MORHEIM_x0020_BEAUTY" points="2238.63,2435.88 2235.11,2404.01 2219.37,2375.13 2184.69,2354.27 
		2128.67,2365.12 2110.42,2386.89 2110.29,2421.88 2118.43,2447.19 2149.82,2448.95 2143.16,2481.74 2168.04,2475.05 
		2195.08,2481.94 2215.69,2493.22 2203.56,2456.14 	"/>
	<polygon class="HELENIUM_x0020_MORHEIM_x0020_BEAUTY" points="2931.09,2577.81 2915.55,2549.31 2912.55,2529.76 2867.68,2542.06 
		2849.6,2580.21 2833.67,2582.25 2857.23,2664.84 2922.52,2661.81 2922.66,2625.43 2939.32,2582.64 	"/>
</g>
<g id="KNAUTIA_MACEDONICA_O_H">
	<polygon class="KNAUTIA_x0020_MACEDONICA_x0020_O_x0020_H" points="2888.41,1213.28 2859.72,1187.3 2821.83,1187.16 
		2817.46,1224.34 2789.03,1240.6 2790.7,1275.79 2803.7,1320.78 2838.77,1307.4 2882.19,1283.6 2915.97,1268.77 	"/>
	<polygon class="KNAUTIA_x0020_MACEDONICA_x0020_O_x0020_H" points="4084.01,1182.76 4086.5,1146.31 3995.99,1166.89 
		4017.45,1192.79 4025.12,1222.21 4018.34,1251.02 4053.55,1251.15 4096.38,1228.88 	"/>
	<polygon class="KNAUTIA_x0020_MACEDONICA_x0020_O_x0020_H" points="3045.58,1688.97 3025.92,1685.31 2999.3,1663.18 
		2983.93,1634.05 2941.97,1647.09 2924.98,1667.64 2924.83,1705.75 2919.69,1735.36 2938.61,1743.05 3032.22,1762.88 
		3033.36,1725.61 	"/>
	<polygon class="KNAUTIA_x0020_MACEDONICA_x0020_O_x0020_H" points="2962.76,2389.31 2962.87,2359.85 2945.04,2318.13 
		2945.17,2283.36 2932.4,2298.88 2916.4,2303.89 2900.08,2297.68 2890.68,2284.96 2888.21,2266.12 2894.08,2251.65 2921.58,2245.23 
		2893.08,2225.93 2843.28,2239.14 2828.34,2236.49 2836.71,2257.61 2833.62,2295.16 2824.52,2321.62 2877.08,2344.52 	"/>
	<polygon class="KNAUTIA_x0020_MACEDONICA_x0020_O_x0020_H" points="2435.47,2529.87 2417.55,2548.58 2375.22,2560.25 
		2345.51,2558.04 2332.81,2594.6 2323.1,2644.04 2420.92,2655.31 2417.94,2644.4 2430.88,2594.97 2443.12,2576.17 2462.42,2560.58 	
		"/>
	<polygon class="KNAUTIA_x0020_MACEDONICA_x0020_O_x0020_H" points="3663.18,2045.21 3548.04,2014.5 3555.86,2046.66 
		3554.17,2068.88 3544.08,2088.42 3582.29,2105.04 3577.05,2152.1 3609.59,2154.79 3614.54,2134.85 3640.2,2094.71 3684.94,2060.9 	
		"/>
</g>
<g id="LIATRIS_SPICATA_LIMONIUM_LATIFOLIUM">
	<polygon class="LIATRIS_x0020_SPICATA_x0020_LIMONIUM_x0020_LATIFOLIUM" points="3113,2078.62 3112.9,2105.11 3069.6,2147.9 
		3103.55,2181.61 3115.12,2212.73 3183.93,2198.26 3208.21,2142.83 3212.33,2088.85 	"/>
	<polygon class="LIATRIS_x0020_SPICATA_x0020_LIMONIUM_x0020_LATIFOLIUM" points="2717.41,2568.79 2719.88,2585.42 2737.16,2607.86 
		2748.5,2667.91 2628.83,2667.46 2625.27,2637.87 2635.07,2591.39 2644.44,2581.54 2653.54,2568.18 2677,2561.39 2678.68,2570.04 
		2690.28,2581.71 2705.24,2578.57 	"/>
	<polyline class="LIATRIS_x0020_SPICATA_x0020_LIMONIUM_x0020_LATIFOLIUM" points="2590.61,1398.84 2656.1,1380.58 2716.75,1356.45 
		2692.37,1335.71 2678.33,1298.2 2682.7,1260.15 2668.19,1264.83 2644.06,1260 2628.26,1286.73 2606.49,1297.93 2585.85,1292.97 
		2577.3,1369.27 2590.61,1398.84 	"/>
</g>
<g id="LOBELIA_YEDRARIENSIS">
	<polygon class="LOBELIA_x0020_YEDRARIENSIS" points="3074.87,1586 3061.22,1578.9 3023.68,1598.79 2984.09,1590.66 
		2978.87,1620.54 2999.3,1663.18 3025.92,1685.31 3045.58,1688.97 3085.06,1680.25 3110.28,1661.38 3122.01,1641.85 
		3101.79,1634.12 3080.45,1600.03 	"/>
	<polygon class="LOBELIA_x0020_YEDRARIENSIS" points="3527.24,2390.18 3494.48,2374.9 3477.59,2362.31 3471.26,2343.77 
		3451.4,2361.43 3443.3,2414.66 3399.22,2411.52 3394.84,2431.54 3373.92,2458.61 3412.17,2477.85 3420.62,2490.4 3442.97,2464.57 
		3476.14,2455.74 3485.2,2435.08 3503.8,2425.89 3518.65,2431.81 3531.4,2417.04 	"/>
	<polygon class="LOBELIA_x0020_YEDRARIENSIS" points="2431.27,2480.2 2392.76,2477.87 2348.46,2452.18 2314.99,2470.9 
		2318.18,2503.31 2307.02,2510.67 2329.52,2512.38 2348.16,2531.54 2345.51,2558.04 2375.22,2560.25 2417.55,2548.58 
		2435.47,2529.87 2443.41,2498.36 	"/>
</g>
<g id="LYNCHNIS_CHALCEDONIA">
	<polyline class="LYNCHNIS_x0020_CHALCEDONIA" points="2444.27,1186.96 2429.8,1194.97 2423.15,1212.23 2429.08,1234.14 
		2447.54,1240.02 2467.26,1229.67 2471.92,1207.8 2462.74,1191.6 2444.27,1186.96 	"/>
	<polygon class="LYNCHNIS_x0020_CHALCEDONIA" points="3538.9,1365.11 3524.35,1347.68 3505.85,1351.22 3491.82,1364.93 
		3491.76,1382.36 3503.41,1396.58 3514.66,1402.75 3536.65,1402.83 3542.95,1376.43 	"/>
	<polygon class="LYNCHNIS_x0020_CHALCEDONIA" points="2877.23,1576.27 2867.81,1585.92 2864.12,1603.11 2862.84,1622.03 
		2875.59,1632.92 2892,1633.7 2902.41,1627.72 2911.08,1612.41 2909.94,1594.22 2901.81,1576.36 2891.81,1572.69 	"/>
	<polyline class="LYNCHNIS_x0020_CHALCEDONIA" points="3355.5,2337.91 3342.53,2309.65 3360.43,2292.22 3372.64,2288.8 
		3389.81,2297.25 3395.26,2317.36 3389.85,2338.04 3375.4,2343.9 3355.5,2337.91 	"/>
	<polygon class="LYNCHNIS_x0020_CHALCEDONIA" points="1846.12,2328.39 1832.02,2333.16 1825.36,2349.37 1829.24,2370.45 
		1836.7,2376.62 1849.79,2377.62 1864.28,2367.52 1867.59,2349.84 1867.63,2340.32 	"/>
	<polygon class="LYNCHNIS_x0020_CHALCEDONIA" points="2634.52,2540 2621.15,2524.41 2604.23,2526.27 2587.57,2533.69 
		2584.24,2551.25 2586.5,2559.26 2596.66,2572.05 2617.92,2578.24 2630.19,2570.8 2636.84,2559.45 	"/>
</g>
<g id="LYSIMACHIA_EPHEMERUM">
	<polygon class="LYSIMACHIA_x0020_EPHEMERUM" points="2374.91,1093.26 2348.62,1067.85 2314.34,1079.92 2246.77,1087.85 
		2239.56,1117 2255.57,1140.1 2263.65,1168.72 2289.15,1165.59 2316.44,1168.92 2334.78,1148.29 2363.39,1148.4 2368.26,1129.43 
		2382.71,1111.73 	"/>
	<polygon class="LYSIMACHIA_x0020_EPHEMERUM" points="4004.32,1282.57 3965.78,1295.53 3942.8,1295.45 3927.81,1289.96 
		3915.85,1310.39 3911.28,1337.86 3949.83,1346.43 3949.66,1393.12 3920.88,1393.01 3927.36,1410.38 3945.38,1445.58 
		3994.02,1400.67 4053.21,1342.45 	"/>
	<polyline class="LYSIMACHIA_x0020_EPHEMERUM" points="3322.02,1224.36 3316.69,1311.09 3304.26,1318.79 3297.98,1339.38 
		3306.18,1356.23 3289.08,1371.8 3277.92,1420.77 3262.36,1404.52 3205.41,1381.29 3169.72,1388.39 3192.59,1266.76 
		3233.74,1269.97 3278.52,1260.55 3322.02,1224.36 	"/>
	<polygon class="LYSIMACHIA_x0020_EPHEMERUM" points="2984.09,1590.66 2962.21,1564.61 2958.76,1531.13 2949.52,1529.28 
		2931.57,1531.02 2901.4,1541.44 2882.59,1557.49 2870.71,1572.42 2867.81,1585.92 2877.23,1576.27 2891.81,1572.69 
		2901.81,1576.36 2909.94,1594.22 2911.08,1612.41 2902.41,1627.72 2918.49,1641.34 2924.98,1667.64 2941.97,1647.09 
		2983.93,1634.05 2978.87,1620.54 	"/>
	<polygon class="LYSIMACHIA_x0020_EPHEMERUM" points="3315.47,2491.47 3308.25,2473.08 3286.6,2455.33 3284.4,2440.45 
		3234.5,2446.5 3210.88,2476.7 3205.54,2533.55 3268.95,2572.58 3282.17,2587.29 3301.1,2598.24 3317.23,2598.3 3325.58,2575 
		3309.66,2559.7 3308.06,2522.97 	"/>
	<polygon class="LYSIMACHIA_x0020_EPHEMERUM" points="1905.41,2392.91 1905.19,2372.89 1867.63,2340.32 1867.59,2349.84 
		1864.28,2367.52 1849.79,2377.62 1836.7,2376.62 1810.87,2378.98 1777.52,2408.72 1758.72,2431.26 1789.84,2453.47 
		1866.62,2501.61 1873.34,2464.08 1887.28,2437.26 1905.29,2425.01 1900.47,2412.67 	"/>
	<polygon class="LYSIMACHIA_x0020_EPHEMERUM" points="2667.83,2345.78 2569.21,2311.06 2555.1,2323.57 2547.92,2348.53 
		2543.72,2364.75 2545.8,2387.74 2551.57,2397.45 2544.24,2414.44 2535.24,2442.84 2555.35,2429.64 2560.65,2436.29 
		2580.48,2434.28 2598.78,2451.26 2622.67,2461.98 2641.81,2451.9 2665.01,2451.99 2670.95,2415.61 	"/>
</g>
<g id="MOLINIA_CAERULEA_ED">
	<polygon class="MOLINIA_x0020_CAERULEA_x0020_ED" points="2799.61,1155.74 2765.85,1141.77 2734.41,1155.5 2717.52,1149.73 
		2717.34,1198.79 2701.63,1216.2 2711.82,1220.44 2723.83,1237.97 2723.77,1253.6 2752.21,1238.07 2766.11,1233.89 2789.03,1240.6 
		2817.46,1224.34 2821.83,1187.16 	"/>
	<polyline class="MOLINIA_x0020_CAERULEA_x0020_ED" points="1929.52,1164.24 1929.62,1139 1934.75,1118.65 1962.01,1112.21 
		1984.99,1108.66 2009.68,1106.63 2038.07,1135.69 2039.63,1175.02 2019.55,1197.47 1999.18,1214.8 1973.13,1205.45 1951.5,1177.04 
		1929.52,1164.24 	"/>
	<polygon class="MOLINIA_x0020_CAERULEA_x0020_ED" points="3683.98,1214.79 3586.28,1223.8 3569.24,1281.03 3592.59,1331.31 
		3665.86,1343.44 3689.21,1312.49 3697.73,1257.26 	"/>
	<polygon class="MOLINIA_x0020_CAERULEA_x0020_ED" points="3364.32,1635.11 3346.11,1617.42 3314.97,1630.76 3277.05,1650.67 
		3263.14,1683.82 3247.16,1719.11 3257.75,1779.94 3304.56,1778.7 3372.61,1768.13 3340.32,1690.08 	"/>
	<polygon class="MOLINIA_x0020_CAERULEA_x0020_ED" points="3050.39,1496.7 3023.79,1455.35 3000.1,1450.79 2976.08,1460.09 
		2957.65,1493.98 2949.52,1529.28 2958.76,1531.13 2962.21,1564.61 2984.09,1590.66 3023.68,1598.79 3061.22,1578.9 
		3063.89,1542.05 	"/>
	<polygon class="MOLINIA_x0020_CAERULEA_x0020_ED" points="2804.18,2189.52 2811.74,2137.75 2804.57,2077.46 2714.82,2103.61 
		2724.17,2123.35 2719.38,2143.57 2709.01,2157.34 2731.93,2176.82 2747.8,2196.62 2773.52,2211.45 	"/>
	<polygon class="MOLINIA_x0020_CAERULEA_x0020_ED" points="3961.52,2322.92 3966.27,2289.15 3900.13,2226.8 3891.17,2219.79 
		3871.91,2238.36 3856.83,2259.94 3839.08,2279.54 3851.43,2302.03 3834.25,2322.45 3844.19,2332.17 3861.51,2359.6 
		3890.58,2376.39 3908.44,2362.34 3926.33,2359.89 3934.77,2363.05 	"/>
	<polyline class="MOLINIA_x0020_CAERULEA_x0020_ED" points="1758.72,2431.26 1777.52,2408.72 1810.87,2378.98 1793,2352.63 
		1770.89,2336.64 1700.5,2344.07 1678.99,2372.04 1758.72,2431.26 	"/>
	<polygon class="MOLINIA_x0020_CAERULEA_x0020_ED" points="2128.67,2365.12 2184.69,2354.27 2195.69,2320.34 2195.8,2289.12 
		2191.72,2264.16 2179.73,2244.49 2130.83,2251.17 2077.02,2252.61 2076.87,2293 2068.31,2345.45 	"/>
	<polygon class="MOLINIA_x0020_CAERULEA_x0020_ED" points="3037.19,2529.41 3026.92,2523.92 2994.85,2576.88 3045.26,2651.15 
		3062.18,2597.35 3095.11,2566.6 	"/>
</g>
<g id="MONARDA_BRADBURIANA_NG">
	<polyline class="MONARDA_x0020_BRADBURIANA_x0020_NG" points="2229.65,1254.15 2260.52,1273.8 2290.54,1279.11 2302.51,1273.96 
		2299.54,1304.56 2310.87,1317.87 2329.51,1323.73 2323.46,1358.2 2323.35,1386.79 2331.27,1414.19 2267.63,1393.65 
		2179.14,1354.43 2206.56,1343.69 2225.81,1308.37 2235.92,1282.08 2229.65,1254.15 	"/>
	<polygon class="MONARDA_x0020_BRADBURIANA_x0020_NG" points="3705.83,2210.54 3723.41,2203.95 3745.6,2187.55 3761.5,2163.46 
		3768.59,2143.88 3769.97,2123.18 3744.06,2105.11 3723.74,2085.64 3684.94,2060.9 3640.2,2094.71 3614.54,2134.85 3609.59,2154.79 
		3639.86,2163.05 3668.5,2187.26 3679.38,2219 	"/>
	<polyline class="MONARDA_x0020_BRADBURIANA_x0020_NG" points="2077.02,2252.61 2076.87,2293 2068.31,2345.45 2052.84,2347.04 
		2033.09,2360.57 2017.25,2378.25 1994.03,2353.56 1976.82,2345.11 1949.83,2345.01 1962.14,2318.2 1962.27,2282.87 
		1952.65,2263.26 1988.42,2259.8 2077.02,2252.61 	"/>
	<polygon class="MONARDA_x0020_BRADBURIANA_x0020_NG" points="3554.2,2488.2 3544.48,2476.15 3539.14,2469.52 3516.41,2458.57 
		3513.23,2464.74 3500.02,2473.9 3487.19,2471.98 3476.14,2455.74 3442.97,2464.57 3420.62,2490.4 3403.62,2580.18 3433.99,2577.93 
		3440.17,2573.22 3568.36,2538.23 3568.45,2516.18 	"/>
</g>
<g id="PANICUM_SHENANDOAH">
	<polyline class="PANICUM_x0020_SHENANDOAH" points="2574.66,1289.71 2585.85,1292.97 2606.49,1297.93 2628.26,1286.73 
		2644.06,1260 2602.51,1231.47 2596.19,1218.07 2561.72,1237.36 2574.73,1270.97 2574.66,1289.71 	"/>
	<polygon class="PANICUM_x0020_SHENANDOAH" points="2255.57,1140.1 2239.56,1117 2197.92,1113.1 2164.71,1151.27 2152.23,1180.96 
		2159.75,1187.55 2149.24,1221.91 2214.68,1243.15 2236.22,1201.3 2263.65,1168.72 	"/>
	<polygon class="PANICUM_x0020_SHENANDOAH" points="3831.18,1416.41 3869.7,1408.7 3896.86,1400.08 3910.99,1366.5 3911.28,1337.86 
		3819.85,1293.44 3799.27,1317.4 3799.55,1373.29 3792.89,1413.11 	"/>
	<polygon class="PANICUM_x0020_SHENANDOAH" points="3198.78,1520.35 3165.44,1487.3 3145.23,1473.64 3141.57,1420.26 
		3148.9,1395.25 3169.72,1388.39 3205.41,1381.29 3262.36,1404.52 3277.92,1420.77 3277.69,1481.1 	"/>
	<polygon class="PANICUM_x0020_SHENANDOAH" points="3235.1,2288.28 3230.26,2236.33 3183.93,2198.26 3115.12,2212.73 
		3102.07,2232.53 3109.26,2274.93 3176.2,2316.54 	"/>
	<polygon class="PANICUM_x0020_SHENANDOAH" points="2314.99,2470.9 2298.94,2435.86 2258.86,2431.5 2238.63,2435.88 
		2203.56,2456.14 2215.69,2493.22 2242.38,2522.78 2275.8,2531.27 2318.18,2503.31 	"/>
	<polygon class="PANICUM_x0020_SHENANDOAH" points="2667.83,2345.78 2670.95,2415.61 2665.01,2451.99 2722.97,2462.36 
		2741.64,2465.34 2754.62,2383.41 	"/>
	<polygon class="PANICUM_x0020_SHENANDOAH" points="3546.42,2230.76 3555.47,2150.31 3523.15,2114.73 3455.43,2134.26 
		3447.43,2168.12 3451.94,2218.14 3473.56,2258.5 	"/>
</g>
<g id="PAPAVER_ORIENTALE_KARINE">
	<polygon class="PAPAVER_x0020_ORIENTALE_x0020_KARINE" points="2711.82,1220.44 2692.84,1212.54 2679.83,1220.32 2673.12,1238.36 
		2682.7,1260.15 2692.63,1267.94 2709.24,1264.99 2723.77,1253.6 2723.83,1237.97 	"/>
	<polygon class="PAPAVER_x0020_ORIENTALE_x0020_KARINE" points="2469.88,1289.65 2451.47,1270.51 2434.68,1279.65 2424.79,1299.78 
		2435.12,1318.34 2452.42,1324.19 2473.29,1310.85 	"/>
	<polyline class="PAPAVER_x0020_ORIENTALE_x0020_KARINE" points="2096.66,1112.72 2092.57,1125.01 2096.55,1141.26 2109.75,1156.76 
		2118.15,1156.79 2136.57,1147.7 2142.43,1126.24 2124.91,1107.06 2116.43,1104.98 2107.01,1104.05 2096.66,1112.72 	"/>
	<polygon class="PAPAVER_x0020_ORIENTALE_x0020_KARINE" points="3719.56,1403.52 3702.46,1388.86 3683.28,1400.59 3683.39,1416.98 
		3699.52,1439.1 3713.54,1431.39 3721.27,1422.12 	"/>
	<polygon class="PAPAVER_x0020_ORIENTALE_x0020_KARINE" points="3330.61,1357.51 3316.5,1360.44 3306.18,1356.23 3297.98,1339.38 
		3304.26,1318.79 3316.69,1311.09 3334.08,1314.91 3338.44,1329.88 3335.39,1346.97 	"/>
	<polygon class="PAPAVER_x0020_ORIENTALE_x0020_KARINE" points="3208.95,1632.66 3201.12,1618.96 3209.07,1600.51 3227.67,1597.08 
		3244.75,1604.52 3247.52,1625.24 3232.8,1637.48 3219.35,1637.43 	"/>
	<polygon class="PAPAVER_x0020_ORIENTALE_x0020_KARINE" points="2795.12,1535.53 2787.38,1531.46 2775.68,1503.09 2785.37,1486.55 
		2803.08,1485.94 2811.89,1495.8 2817.38,1510.8 2811.06,1525.26 	"/>
	<polygon class="PAPAVER_x0020_ORIENTALE_x0020_KARINE" points="3161.36,2405.8 3142.47,2405.73 3135.03,2397.67 3130.62,2379.47 
		3140.07,2357.73 3158.72,2350.54 3173.79,2363.44 3183.22,2386.76 3173.65,2398.92 	"/>
	<polygon class="PAPAVER_x0020_ORIENTALE_x0020_KARINE" points="3019.27,2164.73 3004.16,2172.33 2996.19,2168.63 2989.62,2164.62 
		2985.64,2149.49 2987.05,2132.81 3001.02,2120.32 3015.46,2121.19 3028.2,2141.12 3021.83,2158.52 	"/>
	<polyline class="PAPAVER_x0020_ORIENTALE_x0020_KARINE" points="3423.99,2103.82 3436.19,2089.69 3452.42,2089.75 3460.29,2104.09 
		3459.39,2128.7 3455.43,2134.26 3442.58,2135.45 3432.22,2133.34 3423.92,2121.91 3423.99,2103.82 	"/>
	<polygon class="PAPAVER_x0020_ORIENTALE_x0020_KARINE" points="3487.19,2471.98 3476.14,2455.74 3485.2,2435.08 3503.8,2425.89 
		3518.65,2431.81 3521.33,2449.03 3513.23,2464.74 3500.02,2473.9 	"/>
	<polygon class="PAPAVER_x0020_ORIENTALE_x0020_KARINE" points="3834.25,2322.45 3851.43,2302.03 3839.08,2279.54 3826.25,2273.44 
		3813.92,2276.78 3804.6,2283.92 3804.52,2306.66 3816.96,2323.8 	"/>
	<polygon class="PAPAVER_x0020_ORIENTALE_x0020_KARINE" points="2009.73,2472.16 2021.59,2465.69 2025.82,2450.02 2017.05,2432.23 
		1994.77,2424.63 1984.21,2436.73 1984.16,2449.36 1988.05,2461.01 	"/>
	<polygon class="PAPAVER_x0020_ORIENTALE_x0020_KARINE" points="2443.73,2414.07 2464.99,2401.83 2472.05,2379.96 2466.02,2369.08 
		2448.66,2360.85 2439.65,2360.81 2428.86,2364.31 2428.76,2390.88 2435.09,2407.84 	"/>
	<polygon class="PAPAVER_x0020_ORIENTALE_x0020_KARINE" points="2724.08,2531.82 2707.33,2522.27 2687.39,2530.82 2677.06,2545.22 
		2677,2561.39 2678.68,2570.04 2690.28,2581.71 2705.24,2578.57 2717.41,2568.79 2729.16,2544.87 	"/>
</g>
<g id="PENSTEMON_DIGITALIS_KARINE">
	<polygon class="PENSTEMON_x0020_DIGITALIS_x0020_KARINE" points="2109.88,1221.76 2080.89,1203.35 2026.26,1189.96 
		2019.55,1197.47 1999.18,1214.8 1991.85,1236.45 1987.9,1272.77 2101.86,1317.09 2125.35,1280.76 2125.59,1238.81 	"/>
	<polygon class="PENSTEMON_x0020_DIGITALIS_x0020_KARINE" points="3830.32,1505.54 3824.22,1470.1 3792.89,1413.11 3743.12,1431.5 
		3713.54,1431.39 3699.52,1439.1 3687.65,1482.65 3689,1527.43 3704.55,1549.05 3765.72,1591.12 3830.7,1543.28 	"/>
	<polygon class="PENSTEMON_x0020_DIGITALIS_x0020_KARINE" points="3409.01,2246.08 3385.78,2252.2 3369.47,2250.06 3339.08,2214.25 
		3325.29,2169.93 3339.4,2127.51 3356.34,2114.1 3405.42,2128.5 3423.92,2121.91 3432.22,2133.34 3442.58,2135.45 3455.43,2134.26 
		3447.43,2168.12 3451.94,2218.14 3429.76,2237.08 	"/>
	<polygon class="PENSTEMON_x0020_DIGITALIS_x0020_KARINE" points="2545.8,2387.74 2543.72,2364.75 2547.92,2348.53 2534.7,2342.82 
		2513.9,2344.63 2472.16,2350.53 2453.2,2363 2466.02,2369.08 2472.05,2379.96 2464.99,2401.83 2443.73,2414.07 2443.64,2438.17 
		2448.28,2461.32 2494.21,2456.15 2505.46,2406.45 2544.24,2414.44 2551.57,2397.45 	"/>
	<polygon class="PENSTEMON_x0020_DIGITALIS_x0020_KARINE" points="2887.62,1425.15 2872.98,1397.18 2805.58,1427.95 
		2740.49,1447.51 2752.54,1462.52 2770.15,1487.75 2775.68,1503.09 2785.37,1486.55 2803.08,1485.94 2811.89,1495.8 
		2839.19,1476.57 2898.39,1484.26 	"/>
</g>
<g id="PHLOMIS_RUSSELIANA">
	<polygon class="PHLOMIS_x0020_RUSSELIANA" points="3263.14,1683.82 3257.34,1665.07 3232.8,1637.48 3219.35,1637.43 
		3208.95,1632.66 3201.12,1618.96 3173.2,1630.09 3156.17,1650.22 3140.78,1691.32 3137.69,1728.07 3146.12,1777.74 
		3173.23,1782.17 3257.75,1779.94 3247.16,1719.11 	"/>
	<polygon class="PHLOMIS_x0020_RUSSELIANA" points="3762.99,2404.77 3768.1,2369.93 3717.45,2345.19 3698.96,2381.07 
		3662.15,2404.39 3652.13,2428.67 3647.2,2456.38 3644.02,2489.46 3650.04,2512.99 3661.9,2512.09 3710.35,2492.88 3772.54,2478.45 
		3775.29,2444.85 	"/>
	<polygon class="PHLOMIS_x0020_RUSSELIANA" points="2428.86,2364.31 2419.08,2334.28 2416.31,2305.79 2425.94,2271.74 2331.94,2248 
		2312.29,2309.86 2312.17,2343.3 2345.59,2379.49 2359.62,2369.4 2387.68,2358.41 2409.52,2357.67 	"/>
</g>
<g id="SCUTELLARIA_INCANA">
	<polygon class="SCUTELLARIA_x0020_INCANA" points="2450.98,1398.95 2444.75,1366.1 2452.42,1324.19 2435.12,1318.34 
		2424.79,1299.78 2386.91,1285.82 2365.36,1285.74 2354.64,1288.88 2356.19,1296.39 2347.67,1323.8 2329.51,1323.73 2323.46,1358.2 
		2323.35,1386.79 2331.27,1414.19 2393.95,1430.27 2448.31,1430.48 2466.52,1426.88 	"/>
	<polygon class="SCUTELLARIA_x0020_INCANA" points="3586.28,1223.8 3569.24,1281.03 3592.59,1331.31 3556.78,1357.18 
		3538.9,1365.11 3524.35,1347.68 3505.85,1351.22 3491.82,1364.93 3459.4,1351.86 3426.9,1330.93 3424.83,1311.49 3435.07,1223.23 
		3470.15,1226.61 	"/>
	<polygon class="SCUTELLARIA_x0020_INCANA" points="3173.79,2363.44 3176.2,2316.54 3109.26,2274.93 3087.18,2278.65 
		3054.08,2338.61 3058.6,2352.73 3084.13,2383.2 3124.93,2403.46 3135.03,2397.67 3130.62,2379.47 3140.07,2357.73 3158.72,2350.54 
			"/>
	<polygon class="SCUTELLARIA_x0020_INCANA" points="3816.96,2323.8 3794.42,2335.08 3779.37,2348.76 3768.1,2369.93 
		3717.45,2345.19 3715.31,2303.88 3695.88,2283.51 3673,2264.81 3676.37,2240.59 3697.7,2261.69 3721.6,2265 3729.65,2241.53 
		3722.32,2219.16 3705.83,2210.54 3723.41,2203.95 3745.6,2187.55 3752.92,2176.45 3755.76,2219.28 3762.64,2241.33 
		3781.85,2259.66 3813.92,2276.78 3804.6,2283.92 3804.52,2306.66 	"/>
	<polygon class="SCUTELLARIA_x0020_INCANA" points="2215.69,2493.22 2195.08,2481.94 2168.04,2475.05 2143.16,2481.74 
		2140.89,2492.94 2102.8,2581.99 2087.2,2588.67 2201.1,2620.37 2203.08,2584.64 2242.38,2522.78 	"/>
</g>
<g id="SEDUM_MATRONA">
	<polyline class="SEDUM_x0020_MATRONA" points="2482.8,1123.99 2533.54,1109.09 2586.56,1137.76 2603.01,1099.42 2588.81,1047.55 
		2537.23,1038.72 2477.76,1035.35 2470.76,1054.33 2467.81,1083.58 2471.82,1106.65 2482.8,1123.99 	"/>
	<polygon class="SEDUM_x0020_MATRONA" points="3927.36,1410.38 3910.99,1366.5 3896.86,1400.08 3869.7,1408.7 3831.18,1416.41 
		3792.89,1413.11 3824.22,1470.1 3830.32,1505.54 3830.7,1543.28 3884.39,1504.52 3945.38,1445.58 	"/>
	<polygon class="SEDUM_x0020_MATRONA" points="3088.81,1360.43 3070.27,1339.89 3053.86,1299.72 2964.66,1354.95 2967.92,1400.22 
		2985.56,1439.59 3000.1,1450.79 3023.79,1455.35 3045.91,1424.45 3088.04,1409.11 3118.88,1384.88 	"/>
	<polygon class="SEDUM_x0020_MATRONA" points="2818.15,1573.71 2789.1,1563.96 2761.8,1585.4 2739.96,1589.74 2724.9,1579.79 
		2708.11,1607.33 2691.9,1646.15 2707.77,1657.76 2789.77,1688.01 2807.13,1659.89 2823.73,1629.28 2834.1,1599.1 	"/>
	<polygon class="SEDUM_x0020_MATRONA" points="3337.42,2089.32 3329.31,2045.81 3343.69,1995.76 3210.38,2001.88 3212.33,2088.85 
		3230.63,2105.55 3271.14,2113.78 3306.74,2105.83 	"/>
	<polygon class="SEDUM_x0020_MATRONA" points="1846.12,2328.39 1867.63,2340.32 1852.82,2301.25 1852.88,2283.66 1861.44,2264.88 
		1800.76,2262.04 1775.84,2258.67 1763.39,2270.69 1759.21,2282.52 1765.79,2320.14 1770.89,2336.64 1793,2352.63 1810.87,2378.98 
		1836.7,2376.62 1829.24,2370.45 1825.36,2349.37 1832.02,2333.16 	"/>
	<polygon class="SEDUM_x0020_MATRONA" points="2921.94,2467.79 2910.74,2495.02 2912.55,2529.76 2915.55,2549.31 2931.09,2577.81 
		2939.32,2582.64 2954.23,2590.79 2944.84,2573.03 2948.96,2556.29 2961.35,2548.43 2977.37,2551.19 2988.15,2560.86 
		2994.85,2576.88 3026.92,2523.92 	"/>
</g>
<g id="SEUNUM_WALLICHIANUM">
	<polygon class="SEUNUM_x0020_WALLICHIANUM" points="3792.89,1413.11 3799.55,1373.29 3799.27,1317.4 3751.4,1324.25 
		3718.04,1321.17 3689.21,1312.49 3665.86,1343.44 3666.25,1393.47 3683.39,1416.98 3683.28,1400.59 3702.46,1388.86 
		3719.56,1403.52 3721.27,1422.12 3713.54,1431.39 3743.12,1431.5 	"/>
	<polygon class="SEUNUM_x0020_WALLICHIANUM" points="3320.88,1525.95 3295.55,1490.84 3277.69,1481.1 3198.78,1520.35 
		3187.73,1570.16 3201.12,1618.96 3209.07,1600.51 3227.67,1597.08 3244.75,1604.52 3247.52,1625.24 3232.8,1637.48 
		3257.34,1665.07 3263.14,1683.82 3277.05,1650.67 3314.97,1630.76 3346.11,1617.42 3329.75,1599.94 3317.56,1565.95 
		3315.3,1541.58 	"/>
	<polygon class="SEUNUM_x0020_WALLICHIANUM" points="2931.57,1531.02 2910,1511.15 2898.39,1484.26 2839.19,1476.57 2811.89,1495.8 
		2817.38,1510.8 2811.06,1525.26 2795.12,1535.53 2789.1,1563.96 2818.15,1573.71 2818.15,1573.71 2834.1,1599.1 2864.12,1603.11 
		2870.71,1572.42 2882.59,1557.49 2901.4,1541.44 	"/>
	<polygon class="SEUNUM_x0020_WALLICHIANUM" points="3115.12,2212.73 3103.55,2181.61 3069.6,2147.9 3021.83,2158.52 
		3019.27,2164.73 3004.16,2172.33 2996.19,2168.63 2985.74,2187.69 2987.55,2226.28 3000.36,2245.53 3033.79,2265.27 
		3087.18,2278.65 3109.26,2274.93 3102.07,2232.53 	"/>
	<polygon class="SEUNUM_x0020_WALLICHIANUM" points="3588.05,2264.77 3569.6,2246.23 3546.42,2230.76 3473.56,2258.5 
		3461.96,2320.4 3471.26,2343.77 3484.14,2310.27 3505.85,2307.75 3527.51,2317.86 3536.96,2340.43 3530.04,2363.27 
		3516.71,2374.99 3494.48,2374.9 3527.24,2390.18 3552.69,2379.64 3582.41,2358.71 3598.37,2336.6 3598.55,2289.65 	"/>
	<polygon class="SEUNUM_x0020_WALLICHIANUM" points="2443.64,2438.17 2443.73,2414.07 2435.09,2407.84 2428.76,2390.88 
		2428.86,2364.31 2409.52,2357.67 2387.68,2358.41 2359.62,2369.4 2345.59,2379.49 2331.9,2414.45 2348.46,2452.18 2392.76,2477.87 
		2431.27,2480.2 2448.28,2461.32 	"/>
	<polygon class="SEUNUM_x0020_WALLICHIANUM" points="2804.04,2504.93 2782.9,2502.85 2758.37,2493.36 2741.64,2465.34 
		2722.97,2462.36 2707.09,2500.65 2707.33,2522.27 2724.08,2531.82 2729.16,2544.87 2717.41,2568.79 2719.88,2585.42 
		2737.16,2607.86 2751.59,2581.94 2768.32,2561.73 2815.09,2567.57 2825.33,2529.43 2829.25,2485.34 	"/>
	<polygon class="SEUNUM_x0020_WALLICHIANUM" points="2017.25,2378.25 1994.03,2353.56 1976.82,2345.11 1949.83,2345.01 
		1913.48,2367.71 1913.48,2367.71 1941.13,2364.42 1957.92,2384.67 1954.6,2409.57 1945.82,2419.29 1926.24,2422.72 1905.34,2411.7 
		1902.95,2402.76 1902.95,2402.76 1900.47,2412.67 1905.29,2425.01 1921.21,2441.56 1946.49,2457.31 1967.65,2460.93 
		1988.05,2461.01 1984.16,2449.36 1984.21,2436.73 1994.77,2424.63 2017.05,2432.23 2025.82,2450.02 	"/>
	<g>
		<g>
			<polygon class="st2" points="2152.23,1180.96 2130.18,1150.85 2118.15,1156.79 2109.75,1156.76 2096.55,1141.26 2092.57,1125.01 
				2063.43,1118.66 2038.07,1135.69 2038.79,1153.91 2075.93,1149.49 2066.84,1199.91 2080.89,1203.35 2109.88,1221.76 
				2125.59,1238.81 2149.24,1221.91 2159.75,1187.55 			"/>
		</g>
		<g>
			<polygon class="SEUNUM_x0020_WALLICHIANUM" points="2152.23,1180.96 2130.18,1150.85 2118.15,1156.79 2109.75,1156.76 
				2096.55,1141.26 2092.57,1125.01 2063.43,1118.66 2038.07,1135.69 2038.79,1153.91 2075.93,1149.49 2066.84,1199.91 
				2080.89,1203.35 2109.88,1221.76 2125.59,1238.81 2149.24,1221.91 2159.75,1187.55 			"/>
		</g>
	</g>
	<polyline class="SEUNUM_x0020_WALLICHIANUM" points="2680.68,1146.02 2633.64,1141.27 2586.44,1169.94 2585.74,1195.88 
		2602.51,1231.47 2644.06,1260 2668.19,1264.83 2682.7,1260.15 2673.12,1238.36 2679.83,1220.32 2692.84,1212.54 2701.63,1216.2 
		2717.34,1198.79 2673.28,1195.25 2680.68,1146.02 	"/>
</g>
<g id="SERRATULA_SEOANEI">
	<polyline class="SERRATULA_x0020_SEOANEI" points="1878.82,1078.28 1988.74,1049.62 2009.68,1106.63 1984.99,1108.66 
		1962.01,1112.21 1934.75,1118.65 1929.62,1139 1929.52,1164.24 1917.71,1160.23 1911.05,1139.9 1897.37,1125.37 1889.95,1124.25 
		1878.82,1078.28 	"/>
	<polygon class="SERRATULA_x0020_SEOANEI" points="3292.99,1198.88 3229.01,1187.82 3215.61,1190.66 3160.86,1225.71 
		3192.59,1266.76 3233.74,1269.97 3278.52,1260.55 3341.92,1207.8 	"/>
	<polygon class="SERRATULA_x0020_SEOANEI" points="2731.93,2176.82 2709.01,2157.34 2701.3,2167.58 2676.14,2179.53 2653.9,2184.75 
		2621.63,2178 2616.87,2207.15 2602.4,2233.74 2643.13,2248.56 2676.78,2255.78 2709.45,2271.99 2736.36,2241.26 2747.8,2196.62 	
		"/>
	<polyline class="SERRATULA_x0020_SEOANEI" points="4033.83,2358.5 4006.47,2327.48 3966.27,2289.15 3961.52,2322.92 
		3934.77,2363.05 3944.97,2366.87 3960,2391.38 3972.97,2405.56 3985.79,2405.61 3993.3,2390.25 4033.83,2358.5 	"/>
</g>
<g id="SESLERIA_AUTUMNALIS">
	<polygon class="SESLERIA_x0020_AUTUMNALIS" points="2986.6,1200.78 2945.54,1185.27 2914.22,1187.51 2888.41,1213.28 
		2915.97,1268.77 2940.99,1255.14 2991.93,1223.12 	"/>
	<polyline class="SESLERIA_x0020_AUTUMNALIS" points="2233.99,1014.79 2240.81,1038.26 2246.77,1087.85 2284.23,1082.89 
		2314.34,1079.92 2348.62,1067.85 2359.07,1044.46 2350.97,1020.73 2233.99,1014.79 	"/>
	<polygon class="SESLERIA_x0020_AUTUMNALIS" points="2918.49,1641.34 2902.41,1627.72 2892,1633.7 2875.59,1632.92 2862.84,1622.03 
		2864.12,1603.11 2834.1,1599.1 2823.73,1629.28 2807.13,1659.89 2789.77,1688.01 2817.58,1701.47 2888.4,1722.66 2919.69,1735.36 
		2924.83,1705.75 2924.98,1667.64 	"/>
	<polygon class="SESLERIA_x0020_AUTUMNALIS" points="2621.63,2178 2608.91,2140.58 2570.91,2155.58 2521.05,2172.89 
		2510.58,2181.84 2506.27,2191.76 2513.35,2201.24 2525.18,2208.38 2602.4,2233.74 2616.87,2207.15 	"/>
	<polyline class="SESLERIA_x0020_AUTUMNALIS" points="1598.33,2299.8 1623.3,2297.04 1638.41,2275.93 1643.35,2255.22 1636.41,2229 
		1629.97,2227.82 1586.71,2217.06 1568.33,2219.94 1555.54,2227.54 1552.61,2247.9 1576.73,2278.32 1598.33,2299.8 	"/>
</g>
<g id="SPOROBOLUS_HETEROLEPSIS">
	<polyline class="SPOROBOLUS_x0020_HETEROLEPSIS" points="2561.72,1237.36 2596.19,1218.07 2585.74,1195.88 2586.56,1137.76 
		2533.54,1109.09 2482.8,1123.99 2482.69,1154.14 2462.74,1191.6 2481.22,1191.67 2501.35,1213.67 2530.88,1206.06 2561.72,1237.36 
			"/>
	<polygon class="SPOROBOLUS_x0020_HETEROLEPSIS" points="2229.65,1254.15 2214.68,1243.15 2178.04,1231.03 2149.24,1221.91 
		2125.59,1238.81 2125.35,1280.76 2101.86,1317.09 2179.14,1354.43 2206.56,1343.69 2225.81,1308.37 2235.92,1282.08 	"/>
	<polygon class="SPOROBOLUS_x0020_HETEROLEPSIS" points="1805.61,1160.77 1796.52,1129.5 1773.87,1120.71 1739.52,1142.97 
		1717.39,1159.39 1703.54,1175.84 1698.19,1188.68 1712.78,1205.07 1750.67,1215.52 1809.12,1227.47 1815.15,1196.17 	"/>
	<polygon class="SPOROBOLUS_x0020_HETEROLEPSIS" points="4123.69,1260.81 4096.38,1228.88 4053.55,1251.15 4018.34,1251.02 
		4004.32,1282.57 4053.21,1342.45 	"/>
	<polygon class="SPOROBOLUS_x0020_HETEROLEPSIS" points="3585.9,1482.26 3554.38,1457.34 3494.03,1460.7 3460.7,1511.22 
		3483.04,1583.26 3530.26,1580.67 3568.91,1570.29 3594.84,1520.59 	"/>
	<polygon class="SPOROBOLUS_x0020_HETEROLEPSIS" points="3435.07,1223.23 3341.92,1207.8 3322.02,1224.36 3316.69,1311.09 
		3334.08,1314.91 3338.44,1329.88 3335.39,1346.97 3381.78,1360.69 3404.66,1356.6 3426.9,1330.93 3424.83,1311.49 	"/>
	<polygon class="SPOROBOLUS_x0020_HETEROLEPSIS" points="2789.1,1563.96 2761.8,1585.4 2739.96,1589.74 2724.9,1579.79 
		2698.02,1566.07 2681.25,1553.1 2676.16,1524.76 2680.54,1497.68 2691,1475.8 2702.08,1459.06 2740.49,1447.51 2752.54,1462.52 
		2770.15,1487.75 2775.68,1503.09 2787.38,1531.46 2795.12,1535.53 	"/>
	<polygon class="SPOROBOLUS_x0020_HETEROLEPSIS" points="3210.38,2001.88 3212.33,2088.85 3113,2078.62 3092.4,2051.78 
		3103.16,2009.99 	"/>
	<polygon class="SPOROBOLUS_x0020_HETEROLEPSIS" points="3045.8,2312.8 3013.84,2305.84 3033.79,2265.27 3000.36,2245.53 
		2979.96,2273.01 2945.17,2283.36 2945.04,2318.13 2962.87,2359.85 2962.76,2389.31 2973.85,2397.07 3058.6,2352.73 	"/>
	<polygon class="SPOROBOLUS_x0020_HETEROLEPSIS" points="3715.31,2303.88 3695.88,2283.51 3673,2264.81 3643.06,2264.7 
		3616.16,2276.04 3598.55,2289.65 3598.37,2336.6 3600.87,2375.3 3629.48,2396.26 3662.15,2404.39 3698.96,2381.07 3717.45,2345.19 
			"/>
	<polygon class="SPOROBOLUS_x0020_HETEROLEPSIS" points="2110.06,2481.62 2009.73,2472.16 2001.51,2514.19 1977.55,2548.34 
		1993.74,2555.16 2087.2,2588.67 2102.8,2581.99 2117.12,2548.86 2140.89,2492.94 	"/>
	<polygon class="SPOROBOLUS_x0020_HETEROLEPSIS" points="2514.59,2459.34 2494.21,2456.15 2448.28,2461.32 2431.27,2480.2 
		2443.41,2498.36 2435.47,2529.87 2462.42,2560.58 2523.45,2547.04 	"/>
	<polygon class="SPOROBOLUS_x0020_HETEROLEPSIS" points="2833.67,2582.25 2815.09,2567.57 2768.32,2561.73 2751.59,2581.94 
		2737.16,2607.86 2748.5,2667.91 2761.24,2667.96 2857.23,2664.84 	"/>
	<polygon class="SPOROBOLUS_x0020_HETEROLEPSIS" points="3412.17,2477.85 3373.92,2458.61 3347.87,2457.93 3327.55,2469.7 
		3315.47,2491.47 3308.06,2522.97 3309.66,2559.7 3325.58,2575 3317.23,2598.3 3373.71,2588.58 3403.62,2580.18 3420.62,2490.4 	"/>
</g>
<g id="STACHYS_OFFICINALIS_ROSEA">
	<g>
		<g>
			<polygon class="st0" points="2240.81,1038.26 2233.99,1014.79 2152.88,1023.16 2165.14,1038.61 2165.09,1051.63 2160.8,1056.62 
				2160.75,1070.38 2152.42,1082.4 2130.56,1090.04 2110.39,1085.07 2116.43,1104.98 2124.91,1107.06 2142.43,1126.24 
				2136.57,1147.7 2130.18,1150.85 2152.23,1180.96 2164.71,1151.27 2197.92,1113.1 2239.56,1117 2246.77,1087.85 			"/>
		</g>
		<g>
			<polygon class="STACHYS_x0020_OFFICINALIS_x0020_ROSEA" points="2240.81,1038.26 2233.99,1014.79 2152.88,1023.16 
				2165.14,1038.61 2165.09,1051.63 2160.8,1056.62 2160.75,1070.38 2152.42,1082.4 2130.56,1090.04 2110.39,1085.07 
				2116.43,1104.98 2124.91,1107.06 2142.43,1126.24 2136.57,1147.7 2130.18,1150.85 2152.23,1180.96 2164.71,1151.27 
				2197.92,1113.1 2239.56,1117 2246.77,1087.85 			"/>
		</g>
	</g>
	<polygon class="STACHYS_x0020_OFFICINALIS_x0020_ROSEA" points="2949.52,1529.28 2931.57,1531.02 2910,1511.15 2898.39,1484.26 
		2887.62,1425.15 2872.98,1397.18 2964.66,1354.95 2967.92,1400.22 2985.56,1439.59 3000.1,1450.79 2976.08,1460.09 
		2957.65,1493.98 	"/>
	<polyline class="STACHYS_x0020_OFFICINALIS_x0020_ROSEA" points="3284.54,2337.46 3286.96,2361.39 3276.34,2414.03 3284.4,2440.45 
		3234.5,2446.5 3223.32,2417.63 3183.22,2386.76 3173.79,2363.44 3176.2,2316.54 3205,2350.69 3243.05,2350.84 3251.18,2329.17 
		3275.75,2339.45 3284.54,2337.46 	"/>
	<polygon class="STACHYS_x0020_OFFICINALIS_x0020_ROSEA" points="2824.52,2321.62 2833.62,2295.16 2836.71,2257.61 2822.48,2221.71 
		2806.54,2247.94 2779.69,2237.56 2788.83,2200.5 2773.52,2211.45 2747.8,2196.62 2736.36,2241.26 2709.45,2271.99 	"/>
	<polygon class="STACHYS_x0020_OFFICINALIS_x0020_ROSEA" points="2644.44,2581.54 2630.19,2570.8 2617.92,2578.24 2596.66,2572.05 
		2586.5,2559.26 2563,2560.96 2546.22,2570.48 2528.03,2599.44 2523.11,2636.64 2525.39,2667.07 2542.7,2666.37 2628.83,2667.46 
		2625.27,2637.87 2635.07,2591.39 	"/>
	<polygon class="STACHYS_x0020_OFFICINALIS_x0020_ROSEA" points="3523.15,2114.73 3544.08,2088.42 3554.17,2068.88 3555.86,2046.66 
		3548.04,2014.5 3476.92,2008.56 3452.75,2003.73 3437.48,2027.5 3430.46,2068.03 3436.19,2089.69 3452.42,2089.75 3460.29,2104.09 
		3459.39,2128.7 3455.43,2134.26 	"/>
	<polyline class="STACHYS_x0020_OFFICINALIS_x0020_ROSEA" points="3972.82,2446.09 3985.79,2405.61 3972.97,2405.56 3960,2391.38 
		3944.97,2366.87 3926.33,2359.89 3908.44,2362.34 3890.58,2376.39 3870.96,2410.3 3858.46,2459.37 3876.51,2453.77 
		3972.82,2446.09 	"/>
</g>
<g id="SUCCISA_PRATENSIS">
	<polygon class="SUCCISA_x0020_PRATENSIS" points="2789.03,1240.6 2766.11,1233.89 2752.21,1238.07 2746.7,1258.55 2754.46,1280.85 
		2771.95,1287.27 2790.7,1275.79 	"/>
	<polygon class="SUCCISA_x0020_PRATENSIS" points="2356.19,1296.39 2347.51,1254.59 2329.6,1254.52 2313.73,1258.76 
		2302.51,1273.96 2299.54,1304.56 2310.87,1317.87 2329.51,1323.73 2347.67,1323.8 	"/>
	<polygon class="SUCCISA_x0020_PRATENSIS" points="1911.05,1139.9 1897.37,1125.38 1889.95,1124.25 1877.88,1124.2 1873.3,1138.57 
		1877.75,1158.02 1898.43,1171.05 1907.3,1171.08 1917.71,1160.23 	"/>
	<polygon class="SUCCISA_x0020_PRATENSIS" points="3625.16,1465.58 3604.2,1465.5 3585.9,1482.26 3594.84,1520.59 3620.55,1523.14 
		3638.04,1508.53 3641.28,1493.59 	"/>
	<polygon class="SUCCISA_x0020_PRATENSIS" points="3114.46,1557.34 3108.01,1542.22 3096.74,1533.61 3063.89,1542.05 
		3061.22,1578.9 3074.87,1586 3076.99,1591.33 3097.4,1591.4 3116.25,1577.76 	"/>
	<polygon class="SUCCISA_x0020_PRATENSIS" points="3568.76,2432.01 3554.43,2426.08 3536.63,2427.67 3520.13,2441.34 
		3521.33,2449.03 3516.41,2458.57 3539.14,2469.52 3544.48,2476.15 3560.05,2474.13 3568.63,2467.35 3573.23,2450.16 	"/>
	<polygon class="SUCCISA_x0020_PRATENSIS" points="3697.7,2261.69 3721.6,2265 3729.65,2241.53 3722.32,2219.16 3705.83,2210.54 
		3679.38,2219 3676.37,2240.59 	"/>
	<polygon class="SUCCISA_x0020_PRATENSIS" points="2586.71,2390.87 2577.47,2387.95 2564.99,2386.4 2551.57,2397.45 
		2544.24,2414.44 2555.35,2429.64 2560.65,2436.29 2580.48,2434.28 2594.77,2421.37 2594.83,2404.42 	"/>
	<polygon class="SUCCISA_x0020_PRATENSIS" points="2954.23,2590.79 2963.46,2590.82 2994.85,2576.88 2988.15,2560.86 
		2977.37,2551.19 2961.35,2548.43 2948.96,2556.29 2944.84,2573.03 	"/>
	<polygon class="SUCCISA_x0020_PRATENSIS" points="1926.24,2422.72 1945.82,2419.29 1954.6,2409.57 1957.92,2384.67 
		1941.13,2364.42 1913.48,2367.71 1905.19,2372.89 1905.41,2392.91 1902.95,2402.76 1905.34,2411.7 	"/>
	<polygon class="SUCCISA_x0020_PRATENSIS" points="3234.17,2175.83 3222.19,2159.27 3207.27,2159.21 3198.66,2164.63 
		3190.83,2182.5 3206.24,2204.63 3229.2,2202.71 3235.45,2194.15 	"/>
</g>
<g id="VERONICASTRUM_VIRGINICUM_ERICA">
	<polygon class="VERONICASTRUM_x0020_VIRGINICUM_x0020_ERICA" points="2680.68,1146.02 2673.28,1195.25 2717.34,1198.79 
		2717.52,1149.73 	"/>
	<polygon class="VERONICASTRUM_x0020_VIRGINICUM_x0020_ERICA" points="3082.12,1477.48 3050.39,1496.7 3063.89,1542.05 
		3096.74,1533.61 	"/>
	<polygon class="VERONICASTRUM_x0020_VIRGINICUM_x0020_ERICA" points="3033.79,2265.27 3013.84,2305.84 3045.8,2312.8 
		3054.08,2338.61 3087.18,2278.65 	"/>
	<polygon class="VERONICASTRUM_x0020_VIRGINICUM_x0020_ERICA" points="3399.23,2411.52 3443.3,2414.66 3451.4,2361.43 
		3414.24,2374.6 3385.2,2365.62 3402.24,2397.79 	"/>
	<polygon class="VERONICASTRUM_x0020_VIRGINICUM_x0020_ERICA" points="2118.43,2447.19 2110.06,2481.62 2140.89,2492.94 
		2149.82,2448.95 	"/>
	<polygon class="VERONICASTRUM_x0020_VIRGINICUM_x0020_ERICA" points="2494.21,2456.15 2529.27,2461.63 2544.24,2414.44 
		2505.46,2406.45 	"/>
	<polygon class="VERONICASTRUM_x0020_VIRGINICUM_x0020_ERICA" points="2833.67,2582.25 2849.6,2580.21 2867.68,2542.06 
		2825.33,2529.43 2815.09,2567.57 	"/>
	<polygon class="VERONICASTRUM_x0020_VIRGINICUM_x0020_ERICA" points="3628.37,1415.65 3628.22,1457.62 3663,1457.75 
		3654.23,1407.56 	"/>
	<polygon class="VERONICASTRUM_x0020_VIRGINICUM_x0020_ERICA" points="3616.16,2276.04 3636.61,2210.28 3679.38,2219 3673,2264.81 
		3643.06,2264.7 	"/>
	<polygon class="VERONICASTRUM_x0020_VIRGINICUM_x0020_ERICA" points="2038.79,1153.91 2039.63,1175.02 2026.26,1189.96 
		2066.84,1199.91 2075.93,1149.49 	"/>
</g>
</svg>
