<?xml version="1.0" encoding="utf-8"?>
<!-- Generator: Adobe Illustrator 24.2.1, SVG Export Plug-In . SVG Version: 6.00 Build 0)  -->
<svg version="1.1" id="MONARDA" xmlns="http://www.w3.org/2000/svg" xmlns:xlink="http://www.w3.org/1999/xlink" x="0px" y="0px"
	 viewBox="0 0 7681.28 4320" style="enable-background:new 0 0 7681.28 4320;" xml:space="preserve">
<style type="text/css">
	.st0{opacity:0.5;fill:none;stroke:#000000;stroke-miterlimit:10;}
</style>
<polygon class="st0" points="4243.76,1478.33 4226.79,1491.32 4204.06,1495.6 4194.84,1506.68 4197.2,1523.13 4214.1,1528.98 
	4213.08,1542.03 4221.26,1553.18 4238.19,1549.85 4246.5,1524.26 4257.63,1520.43 4268.26,1522.41 4268.21,1536.91 4272.98,1553.36 
	4282.62,1561.61 4296.64,1561.66 4304.9,1549.6 4304.94,1538.97 4288.54,1528.76 4279.4,1514.23 4278.98,1495.86 4283.39,1480.89 
	4291.62,1475.6 4298.44,1475.62 4303.01,1462.62 4302.19,1447.45 4292.38,1436.08 4279.46,1434.15 4266.77,1441.11 4256.75,1457.51 
	4250.06,1474.46 "/>
<polygon class="st0" points="4624.75,1453.39 4621.12,1445.23 4602.32,1438.71 4584.97,1420.1 4579.39,1408.57 4585.34,1394.26 
	4605,1382.63 4705.54,1424.02 4690.85,1430.87 4673.14,1431.65 4662.98,1445.38 4660.42,1456.04 4660.38,1466.44 4653.27,1492.26 
	4643.97,1501.01 4631.61,1500.96 4625.15,1499.47 4616.2,1486.23 4620.2,1469.11 "/>
<polygon class="st0" points="4814.39,1717.63 4822.9,1715.53 4833.58,1701.75 4846.37,1694.88 4860.72,1694.93 4864.41,1702.77 
	4860.98,1717.79 4853.18,1723.37 4843.34,1730.44 4839.29,1742.61 4843.6,1752.77 4853.37,1764.99 4855.71,1773.45 4854.33,1781.23 
	4850.58,1789.52 4847.14,1789.51 4784.63,1779.34 4778.61,1762.7 4778.66,1748.15 4783.81,1724.48 4792.97,1718.09 "/>
<polygon class="st0" points="4420.11,1132.03 4418.83,1142.01 4423.79,1151.52 4421.25,1164.25 4409.99,1170.46 4399.48,1170.42 
	4378.72,1155.25 4365.48,1129.15 4369.18,1110.98 4389.23,1094.69 4425,1089.97 4434.9,1118.34 4433.87,1125.83 "/>
<polygon class="st0" points="4756.97,1100.15 4748.1,1113.87 4748.04,1131.36 4762.1,1144.95 4779.74,1145.01 4792.12,1131.51 
	4792.2,1109.09 4798.96,1091.26 4809.57,1083.05 4823.33,1081.33 4827.95,1073.24 4825.2,1051.01 4813.54,1041.21 4741.28,1045.37 
	4738.07,1057.06 4741.2,1069.76 4753.14,1084.26 "/>
<polygon class="st0" points="4943.03,1194.43 4933.2,1209.27 4927.17,1230.46 4929.21,1256.86 4942.72,1282.84 4957.56,1293.51 
	4969.46,1293.55 4983.1,1282.98 4983.16,1264.27 4977.28,1244.06 4973.5,1230.62 4978.67,1212.4 4986.35,1204.36 5003.37,1197.19 
	5022.1,1190.88 5022.12,1182.8 5012.82,1168.32 4995,1161.03 4970.74,1168.6 "/>
<polygon class="st0" points="5229.87,1100.38 5224.13,1115.59 5229.76,1132.37 5242.86,1150.67 5260.33,1173.06 5306.25,1129.51 
	5295.11,1104.46 5293.36,1089.49 5282.9,1084.06 5262.84,1086.39 "/>
<polygon class="st0" points="4095.09,2180.22 4090.22,2204.59 4103.91,2254.36 4118.72,2258.72 4132.62,2249.68 4139.38,2231.53 
	4148.49,2222.48 4158.53,2222.99 4169.97,2233.55 4188.59,2243.18 4196.28,2231.73 4196.34,2213.56 4186.8,2207.79 4153.35,2200.5 
	4146.69,2191.87 4147.2,2180.4 4143.41,2171.78 4123.82,2166.45 "/>
<polygon class="st0" points="4483.06,2462.02 4495.48,2430.01 4512.46,2420.18 4523.56,2395.16 4539.71,2399.45 4572.54,2399.21 
	4580.62,2409.12 4576.66,2432.05 4589,2437.04 4600.23,2454.38 4585.72,2481.85 "/>
<polygon class="st0" points="4505.42,2050.5 4489.14,2042.94 4469.03,2035.52 4460.51,2019.68 4464.47,2005.67 4476.93,1993.35 
	4546.98,1981.8 4562.09,1984.8 4567.58,2000.48 4565.25,2014.17 4558.35,2028.18 4544.93,2040.53 4540.31,2056.5 4549.72,2068.93 
	4549.69,2080.34 4545.08,2091.42 4535.6,2095.63 4516.37,2091.65 4510.87,2078.25 4509.94,2064.87 "/>
<polygon class="st0" points="4787.26,2271.62 4794.39,2254.65 4803.76,2247.61 4818.79,2242 4837.77,2239.23 4858.35,2263.37 
	4872.42,2289.4 4872.34,2312.68 4862.95,2324.83 4851.61,2328.75 4840.87,2324.47 4833.82,2314.82 4834.72,2302.93 4837.58,2294.16 
	4831.38,2283.95 4819.5,2281.07 4811.56,2285.58 4803.07,2283.85 "/>
<polygon class="st0" points="5029.33,2430.44 5033.54,2419.34 5050.94,2402.07 5066.36,2397.21 5089.77,2403.18 5111.5,2430.72 
	5109.58,2443.53 5091.79,2504.59 5083.63,2507.8 5070.16,2503.83 5062.55,2479.28 5044.61,2468.1 5035.01,2458.91 5038.28,2441.92 
	5036.38,2435.37 "/>
<polygon class="st0" points="4966.37,2107.18 4959.51,2122.96 4966.26,2140.74 4957.71,2152.14 4950.62,2162.81 4947.65,2175.45 
	4949.82,2182.27 4960.27,2185.22 4969.28,2182.33 4986.86,2160.51 4997.08,2159.81 5010.66,2170.32 5021.61,2169.63 
	5030.88,2160.66 5030.92,2150.2 5020.99,2137.04 5025.93,2116.62 5027.67,2105.93 5019.19,2094.47 5003.88,2091.25 4989.53,2093.39 
	"/>
</svg>
